<?xml version="1.0" encoding="UTF-8"?>
<svg id="venstrestilt_logo" xmlns="http://www.w3.org/2000/svg" version="1.1" viewBox="0 0 111.2 36.7">
  <!-- Generator: Adobe Illustrator 29.0.0, SVG Export Plug-In . SVG Version: 2.1.0 Build 186)  -->
  <defs>
    <style>
      .st0 {
        fill: #1d1d1b;
      }

      .st1 {
        fill: #fff;
      }
    </style>
  </defs>
  <g>
    <g>
      <path class="st1" d="M45.2,12.6v9.2c-.3,0-.7.1-1,.1l-4.9-7-.2-.5v7.4c-.2,0-.3,0-.6,0s-.4,0-.6,0v-9.2c.2-.1.7-.2,1-.2l4.9,6.9.2.4v-.6s0-6.6,0-6.6c.2,0,.3,0,.6,0s.4,0,.6,0h0Z"/>
      <path class="st1" d="M47.6,17.3c0-2.8,1.9-4.9,4.6-4.9s4.6,2.1,4.6,4.9-1.9,4.9-4.6,4.9-4.6-2.1-4.6-4.9ZM55.7,17.3c0-2.2-1.3-3.8-3.4-3.8s-3.4,1.6-3.4,3.8,1.3,3.8,3.4,3.8,3.4-1.6,3.4-3.8Z"/>
      <path class="st1" d="M66,21.9c-.2,0-.5.1-.8.1s-.4,0-.5,0l-2.2-3.6c-.1,0-.2,0-.3,0-.5,0-1.1,0-1.6,0v3.7c-.2,0-.4,0-.6,0s-.4,0-.6,0v-9.2c.8-.2,1.9-.3,2.8-.3,2.4,0,3.5,1.1,3.5,2.8s-.8,2.4-2,2.8l2.4,3.8h0ZM62.1,17.3c1.7,0,2.3-.8,2.3-2s-.7-1.8-2.3-1.8-1.1,0-1.6.1v3.5c.6,0,1.1,0,1.6,0h0Z"/>
      <path class="st1" d="M75.5,17.1v4.3c-.8.4-1.9.7-3.2.7-2.6,0-4.8-1.8-4.8-4.9s2.2-4.9,4.7-4.9,2.5.4,3.1.8c0,.4-.2.8-.6,1-.7-.4-1.4-.7-2.5-.7-1.9,0-3.5,1.4-3.5,3.8s1.2,3.8,3.6,3.8,1.5-.1,2-.3v-2.5h-2c0-.2,0-.4,0-.6s0-.4,0-.6h3.1,0Z"/>
      <path class="st1" d="M84.1,21.4c0,.2,0,.4,0,.6h-5.9v-9.3h5.8c0,.2,0,.4,0,.6s0,.4,0,.5h-4.6v2.9h4.1c0,.2,0,.4,0,.5s0,.3,0,.5h-4.1v3.2h4.8c0,.2,0,.3,0,.5h0Z"/>
      <path class="st1" d="M85.7,21c.1-.4.4-.7.7-.9.6.6,1.3,1,2.4,1s2.1-.7,2.1-1.7-.3-1.3-2.1-1.7c-1.4-.3-2.8-.9-2.8-2.7s1.2-2.5,3-2.5,2.3.4,3,.9c0,.4-.3.8-.6.9-.6-.4-1.3-.8-2.3-.8s-1.8.6-1.8,1.4.4,1.2,1.9,1.6c1.9.5,3.1,1.2,3.1,2.9s-1.3,2.8-3.3,2.8-2.6-.7-3.1-1.2h0Z"/>
      <path class="st1" d="M44.6,33.9c0,1.7-1.2,2.8-4,2.8s-2.2-.1-3.1-.3v-9.1c.8-.2,1.9-.3,3-.3,2.7,0,3.7,1,3.7,2.7s-.5,1.7-1.2,2c1,.3,1.6,1,1.6,2.2h0ZM39.7,28.8v2.1h1.1c1,0,1.3-.4,1.3-1.1s-.5-1-1.4-1-.7,0-1,0ZM42.5,33.7c0-.7-.5-1.2-1.6-1.2h-1.2v2.3c.4,0,.7,0,1.1,0,1.1,0,1.6-.4,1.6-1.2h0Z"/>
      <path class="st1" d="M46,31.8c0-2.9,2-4.9,4.9-4.9s4.9,2,4.9,4.9-2,4.9-4.9,4.9-4.9-2-4.9-4.9ZM53.4,31.8c0-1.8-1-2.9-2.5-2.9s-2.5,1.1-2.5,2.9,1,2.9,2.5,2.9,2.5-1.1,2.5-2.9Z"/>
      <path class="st1" d="M65.7,27.1v9.2c-.7.1-1.4.2-2.1.1l-3.6-5.3-.3-.6v.7c0,0,0,5.1,0,5.1-.4,0-.7,0-1.1,0s-.7,0-1.1,0v-9.2c.5-.2,1.4-.2,2.1-.1l3.6,5.4.3.6v-.7c0,0,0-5.2,0-5.2.4,0,.7,0,1,0s.7,0,1.1,0h0Z"/>
      <path class="st1" d="M76.3,31.7c0,3.1-2.1,4.9-5.3,4.9s-2.2,0-3-.2v-9.2c.8-.1,1.7-.2,3-.2,3.4,0,5.3,1.9,5.3,4.7ZM74,31.7c0-1.7-1-2.7-2.9-2.7s-.6,0-.9,0v5.6c.3,0,.6,0,1,0,1.8,0,2.8-1.1,2.8-2.9h0Z"/>
      <path class="st1" d="M84.6,35.5c0,.3,0,.7-.1,1h-6.3v-9.3h6.1c0,.3.1.7.1,1s0,.6-.1,1h-4v1.7h3.6c0,.3.1.6.1,1s0,.6-.1.9h-3.6v1.9h4.1c0,.3.1.6.1,1h0Z"/>
      <path class="st1" d="M92.6,35.5c0,.3,0,.7-.1,1h-6v-9.3c.4,0,.7-.1,1.1-.1s.7,0,1.1.1v7.4h3.8c0,.3.1.7.1,1Z"/>
      <path class="st1" d="M102.3,36.3c-.4.1-.9.2-1.4.2s-.6,0-.8,0l-.7-1.8h-3.4l-.7,1.8c-.3,0-.7,0-1,0s-.8,0-1.1-.2l3.5-9.2c.4,0,.8,0,1.1,0s.7,0,1.1,0l3.4,9.2h0ZM98.8,32.8l-.8-2.1-.3-.9-.3.9-.8,2.1h2.1Z"/>
      <path class="st1" d="M111.2,31v4.9c-.7.4-1.7.8-3.3.8-3.1,0-4.9-1.9-4.9-4.9s2-5,5-5,2.3.4,3,.8c-.1.7-.5,1.4-1.1,1.8-.5-.3-1.1-.5-1.9-.5-1.6,0-2.6,1-2.6,2.9s.9,2.9,2.6,2.9.9,0,1.2-.1v-1.6h-1.5c0-.3,0-.7,0-1s0-.7,0-1h3.6,0Z"/>
    </g>
    <path class="st1" d="M33.7,12.5c-5.1.3-9.5,3.4-11.6,8h0c0,.1,0,0,0,0-.3-1.3-.8-2.6-1.3-3.8h0s0,0,0,0c2.2-3.1,5.4-5.5,9-6.6v-1.9c-2.3.6-4.4,1.6-6.3,3.1h0s0,0,0,0c-.5-.9-1.1-1.7-1.7-2.5h0s0,0,0,0c2.4-1.8,5.1-3,8-3.7v-1.8c-3.3.7-6.4,2.1-9.2,4.2h0s0,0,0,0c-.7-.7-1.4-1.5-2.1-2.2h0s0,0,0,0c1.8-1.4,3.8-2.6,6-3.5l-.7-1.6c-2.4,1-4.7,2.3-6.7,4h0s0,0,0,0C14.8,2.3,12.5,1,10.1,0l-.7,1.6c2.1.9,4.1,2.1,6,3.5h0s0,0,0,0c-.7.7-1.5,1.4-2.1,2.2h0s0,0,0,0c-2.8-2.1-5.8-3.5-9.2-4.2v1.8c2.9.7,5.6,1.9,8.1,3.7h0s0,0,0,0c-.6.8-1.2,1.6-1.7,2.5h0s0,0,0,0c-1.9-1.4-4-2.4-6.3-3.1v1.9c3.6,1.1,6.8,3.4,9,6.6h0s0,0,0,0c-.5,1.2-1,2.5-1.3,3.8h0c0,.1,0,0,0,0-2.1-4.7-6.6-7.7-11.6-8v1.8c2.8.2,5.4,1.4,7.4,3.3,2,2,3.3,4.6,3.5,7.4h0c0,0-2,0-2,0-.1.6-.1,1.1-.1,1.5s0,.9.1,1.4h2.1v8.7h1.8v-8.7h3.1v8.7h1.8v-8.7h3.1v8.7h1.8v-8.7h2.1c0-.5.1-1,.1-1.5s0-1-.1-1.5h-2,0c.3-2.8,1.5-5.5,3.5-7.4,2-2,4.7-3.1,7.4-3.3v-1.8h0ZM20.1,9.9h0s0,0,0,0c.6.8,1.2,1.6,1.7,2.5h0s0,0,0,0c-.8.7-1.5,1.5-2.1,2.3h0c0,0,0,0,0,0-.5-.9-1.1-1.8-1.7-2.7h0s0,0,0,0c.7-.8,1.4-1.5,2.1-2.2h0ZM14.7,8.5c.7-.8,1.4-1.5,2.1-2.1h0s0,0,0,0c.8.7,1.5,1.4,2.1,2.1h0s0,0,0,0c-.8.7-1.5,1.4-2.1,2.1h0s0,0,0,0c-.7-.8-1.4-1.5-2.1-2.1h0s0,0,0,0ZM11.7,12.5h0s0,0,0,0c.5-.9,1.1-1.7,1.7-2.5h0s0,0,0,0c.8.7,1.5,1.4,2.1,2.2h0s0,0,0,0c-.6.8-1.2,1.7-1.7,2.7h0c0,0,0,0,0,0-.6-.8-1.4-1.6-2.1-2.3ZM12.9,25.1h0c.1-2.2.5-4.3,1.3-6.3h0c0-.1,0,0,0,0,1,2,1.5,4.1,1.7,6.3h0c0,0-3.1,0-3.1,0ZM16.9,20.3h0c0,.1,0,0,0,0-.4-1.3-1-2.6-1.7-3.7h0s0,0,0,0c.5-1,1.1-2,1.7-2.9h0c0,0,0,0,0,0,.6.9,1.2,1.9,1.7,2.9h0s0,0,0,0c-.7,1.2-1.3,2.4-1.7,3.7ZM17.8,25.1h0c.1-2.3.7-4.4,1.7-6.3h0c0-.1,0,0,0,0,.7,2,1.2,4.1,1.3,6.3h0c0,0-3.1,0-3.1,0Z"/>
  </g>
  <g>
    <path class="st0" d="M3996.2,13.2h-3v-1.1h7.2v1.1h-3v8.7h-1.3v-8.7Z"/>
    <path class="st0" d="M4002,12.3c.6-.1,1.6-.2,2.4-.2,1.3,0,2.2.2,2.8.8.5.4.8,1.1.8,1.9,0,1.3-.8,2.1-1.8,2.5h0c.8.3,1.2,1,1.4,2,.3,1.4.6,2.3.8,2.7h-1.3c-.2-.3-.4-1.1-.7-2.3-.3-1.3-.8-1.9-2-1.9h-1.2v4.2h-1.3v-9.6h0ZM4003.3,16.7h1.3c1.3,0,2.2-.7,2.2-1.9s-.9-1.8-2.2-1.8c-.6,0-1,0-1.2.1v3.6h0Z"/>
    <path class="st0" d="M4018.6,17c0,3.4-2,5.1-4.5,5.1s-4.4-2-4.4-5,1.9-5.1,4.5-5.1,4.4,2,4.4,4.9ZM4011.1,17.1c0,2.1,1.1,4,3.1,4s3.1-1.8,3.1-4.1-1-4-3.1-4-3.1,1.9-3.1,4.1Z"/>
    <path class="st0" d="M4028.9,17.6c0-1.4-.2-3-.1-4.2h0c-.3,1.1-.7,2.4-1.2,3.7l-1.7,4.7h-1l-1.6-4.7c-.5-1.4-.9-2.6-1.1-3.8h0c0,1.2-.1,2.9-.2,4.3l-.3,4.2h-1.2l.7-9.8h1.6l1.7,4.7c.4,1.2.7,2.3,1,3.3h0c.2-1,.6-2.1,1-3.3l1.7-4.7h1.6l.6,9.8h-1.2l-.2-4.3h0Z"/>
    <path class="st0" d="M4032.6,20.4c.6.3,1.4.6,2.3.6,1.3,0,2-.7,2-1.7s-.5-1.4-1.8-1.9c-1.6-.6-2.6-1.4-2.6-2.8s1.3-2.7,3.2-2.7,1.7.2,2.2.5l-.3,1c-.3-.2-1-.5-1.9-.5-1.3,0-1.8.8-1.8,1.5s.6,1.4,1.9,1.9c1.7.6,2.5,1.4,2.5,2.9s-1.1,2.8-3.4,2.8-2-.3-2.5-.6l.3-1.1h0Z"/>
    <path class="st0" d="M4052.2,17c0,3.4-2,5.1-4.5,5.1s-4.4-2-4.4-5,1.9-5.1,4.5-5.1,4.4,2,4.4,4.9ZM4044.7,17.1c0,2.1,1.1,4,3.1,4s3.1-1.8,3.1-4.1-1-4-3.1-4-3.1,1.9-3.1,4.1Z"/>
    <path class="st0" d="M4061.8,21.5c-.6.2-1.7.5-3,.5s-2.7-.4-3.7-1.3c-.8-.8-1.4-2.1-1.4-3.6,0-2.9,2-5,5.3-5s2,.2,2.4.4l-.3,1c-.5-.2-1.2-.4-2.2-.4-2.4,0-3.9,1.5-3.9,3.9s1.5,3.9,3.8,3.9,1.4-.1,1.7-.3v-2.9h-2v-1h3.2v4.7h0Z"/>
    <path class="st0" d="M4067.6,12.2h5.3v1.1h-4v3.2h3.7v1h-3.7v4.4h-1.3v-9.8h0Z"/>
    <path class="st0" d="M4076.4,12.2v9.8h-1.3v-9.8h1.3Z"/>
    <path class="st0" d="M4079,21.9v-9.8h1.4l3.1,4.9c.7,1.1,1.3,2.2,1.8,3.2h0c-.1-1.3-.1-2.5-.1-4v-4.1h1.2v9.8h-1.3l-3.1-5c-.7-1.1-1.3-2.2-1.8-3.3h0c0,1.2.1,2.4.1,4v4.2h-1.2Z"/>
    <path class="st0" d="M4089,21.9v-9.8h1.4l3.1,4.9c.7,1.1,1.3,2.2,1.8,3.2h0c-.1-1.3-.1-2.5-.1-4v-4.1h1.2v9.8h-1.3l-3.1-5c-.7-1.1-1.3-2.2-1.8-3.3h0c0,1.2.1,2.4.1,4v4.2h-1.2,0Z"/>
    <path class="st0" d="M4107.2,17.6c0-1.4-.2-3-.1-4.2h0c-.3,1.1-.7,2.4-1.2,3.7l-1.7,4.7h-1l-1.6-4.7c-.5-1.4-.9-2.6-1.1-3.8h0c0,1.2-.1,2.9-.2,4.3l-.3,4.2h-1.2l.7-9.8h1.6l1.7,4.7c.4,1.2.7,2.3,1,3.3h0c.2-1,.6-2.1,1-3.3l1.7-4.7h1.6l.6,9.8h-1.2l-.2-4.3h0Z"/>
    <path class="st0" d="M4112.5,18.9l-1,3.1h-1.3l3.3-9.8h1.5l3.3,9.8h-1.3l-1-3.1h-3.5,0ZM4115.7,17.9l-1-2.8c-.2-.6-.4-1.2-.5-1.8h0c-.1.6-.3,1.2-.5,1.8l-1,2.8s2.9,0,2.9,0Z"/>
    <path class="st0" d="M4120.2,12.3c.6-.1,1.6-.2,2.4-.2,1.3,0,2.2.2,2.8.8.5.4.8,1.1.8,1.9,0,1.3-.8,2.1-1.8,2.5h0c.8.3,1.2,1,1.4,2,.3,1.4.6,2.3.8,2.7h-1.3c-.2-.3-.4-1.1-.7-2.3-.3-1.3-.8-1.9-2-1.9h-1.2v4.2h-1.3v-9.6h0ZM4121.5,16.7h1.3c1.3,0,2.2-.7,2.2-1.9s-.9-1.8-2.2-1.8c-.6,0-1,0-1.2.1v3.6Z"/>
    <path class="st0" d="M4128.5,12.2h1.3v4.7h0c.3-.4.5-.7.8-1l3-3.7h1.6l-3.5,4.1,3.8,5.6h-1.5l-3.2-4.8-.9,1.1v3.7h-1.3v-9.8h0Z"/>
    <path class="st0" d="M3994.4,26.8c.6-.1,1.4-.2,2.3-.2,1.3,0,2.1.2,2.7.7.5.4.8,1,.8,1.7s-.6,1.8-1.7,2.1h0c.9.3,2,1,2,2.5s-.3,1.5-.8,2c-.7.6-1.8.9-3.4.9s-1.5,0-2-.1v-9.6h0ZM3995.6,30.8h1.1c1.3,0,2.1-.7,2.1-1.6s-.9-1.6-2.1-1.6-.9,0-1.1,0v3.1ZM3995.6,35.5c.2,0,.6,0,1.1,0,1.3,0,2.5-.5,2.5-1.9s-1.1-1.9-2.5-1.9h-1v3.7h0Z"/>
    <path class="st0" d="M4011,31.5c0,3.4-2,5.1-4.5,5.1s-4.4-2-4.4-5,1.9-5.1,4.5-5.1,4.4,2,4.4,4.9ZM4003.4,31.6c0,2.1,1.1,4,3.1,4s3.1-1.8,3.1-4.1-1-4-3.1-4-3.1,1.9-3.1,4.1Z"/>
    <path class="st0" d="M4013.1,36.4v-9.8h1.4l3.1,4.9c.7,1.1,1.3,2.2,1.8,3.2h0c-.1-1.3-.1-2.5-.1-4v-4.1h1.2v9.8h-1.3l-3.1-5c-.7-1.1-1.3-2.2-1.8-3.3h0c0,1.2.1,2.4.1,4v4.2h-1.2Z"/>
    <path class="st0" d="M4023.1,26.8c.8-.1,1.7-.2,2.7-.2,1.8,0,3.1.4,4,1.2.9.8,1.4,1.9,1.4,3.5s-.5,2.9-1.4,3.8c-.9.9-2.4,1.4-4.3,1.4s-1.7,0-2.3-.1v-9.6h0ZM4024.3,35.4c.3,0,.8,0,1.3,0,2.7,0,4.2-1.5,4.2-4.1,0-2.3-1.3-3.8-4-3.8s-1.1,0-1.5.1v7.7h0Z"/>
    <path class="st0" d="M4038.2,31.9h-3.8v3.5h4.2v1.1h-5.5v-9.8h5.3v1.1h-4v3.1h3.8v1h0Z"/>
    <path class="st0" d="M4040.7,26.7h1.3v8.7h4.2v1.1h-5.4v-9.8Z"/>
    <path class="st0" d="M4049.6,33.4l-1,3.1h-1.3l3.3-9.8h1.5l3.3,9.8h-1.3l-1-3.1h-3.5,0ZM4052.8,32.4l-1-2.8c-.2-.6-.4-1.2-.5-1.8h0c-.1.6-.3,1.2-.5,1.8l-1,2.8h2.9Z"/>
    <path class="st0" d="M4064.5,36c-.6.2-1.7.5-3,.5s-2.7-.4-3.7-1.3c-.8-.8-1.4-2.1-1.4-3.6,0-2.9,2-5,5.3-5s2,.2,2.4.4l-.3,1c-.5-.2-1.2-.4-2.2-.4-2.4,0-3.9,1.5-3.9,3.9s1.5,3.9,3.8,3.9,1.4-.1,1.7-.3v-2.9h-2v-1h3.2v4.7h0Z"/>
  </g>
  <path class="st0" d="M3990.4,12.5c-5.1.3-9.5,3.4-11.6,8h0c0,.1,0,0,0,0-.3-1.3-.8-2.6-1.3-3.8h0s0,0,0,0c2.2-3.1,5.4-5.5,9-6.6v-1.9c-2.3.6-4.4,1.6-6.3,3.1h0s0,0,0,0c-.5-.9-1.1-1.7-1.7-2.5h0s0,0,0,0c2.4-1.8,5.1-3,8-3.7v-1.8c-3.3.7-6.4,2.1-9.2,4.2h0s0,0,0,0c-.7-.7-1.4-1.5-2.1-2.2h0s0,0,0,0c1.8-1.4,3.8-2.6,6-3.5l-.7-1.6c-2.4,1-4.7,2.3-6.7,4h0s0,0,0,0c-2-1.6-4.3-2.9-6.7-4l-.7,1.6c2.1.9,4.1,2.1,6,3.5h0s0,0,0,0c-.7.7-1.5,1.4-2.1,2.2h0s0,0,0,0c-2.8-2.1-5.8-3.5-9.2-4.2v1.8c2.9.7,5.6,1.9,8.1,3.7h0s0,0,0,0c-.6.8-1.2,1.6-1.7,2.5h0s0,0,0,0c-1.9-1.4-4-2.4-6.3-3.1v1.9c3.6,1.1,6.8,3.4,9,6.6h0s0,0,0,0c-.5,1.2-1,2.5-1.3,3.8h0c0,.1,0,0,0,0-2.1-4.7-6.6-7.7-11.6-8v1.8c2.8.2,5.4,1.4,7.4,3.3,2,2,3.3,4.6,3.5,7.4h0c0,0-2,0-2,0-.1.6-.1,1.1-.1,1.5s0,.9.1,1.4h2.1v8.7h1.8v-8.7h3.1v8.7h1.8v-8.7h3.1v8.7h1.8v-8.7h2.1c0-.5.1-1,.1-1.5s0-1-.1-1.5h-2,0c.3-2.8,1.5-5.5,3.5-7.4,2-2,4.7-3.1,7.4-3.3v-1.8h0ZM3976.8,9.9h0s0,0,0,0c.6.8,1.2,1.6,1.7,2.5h0s0,0,0,0c-.8.7-1.5,1.5-2.1,2.3h0c0,0,0,0,0,0-.5-.9-1.1-1.8-1.7-2.7h0s0,0,0,0c.7-.8,1.4-1.5,2.1-2.2h0ZM3971.4,8.5c.7-.8,1.4-1.5,2.1-2.1h0s0,0,0,0c.8.7,1.5,1.4,2.1,2.1h0s0,0,0,0c-.8.7-1.5,1.4-2.1,2.1h0s0,0,0,0c-.7-.8-1.4-1.5-2.1-2.1h0s0,0,0,0h0ZM3968.4,12.5h0s0,0,0,0c.5-.9,1.1-1.7,1.7-2.5h0s0,0,0,0c.8.7,1.5,1.4,2.1,2.2h0s0,0,0,0c-.6.8-1.2,1.7-1.7,2.7h0c0,0,0,0,0,0-.6-.8-1.4-1.6-2.1-2.3h0ZM3969.5,25.1h0c.1-2.2.5-4.3,1.3-6.3h0c0-.1,0,0,0,0,1,2,1.5,4.1,1.7,6.3h0c0,0-3.1,0-3.1,0h0ZM3973.6,20.3h0c0,.1,0,0,0,0-.4-1.3-1-2.6-1.7-3.7h0s0,0,0,0c.5-1,1.1-2,1.7-2.9h0c0,0,0,0,0,0,.6.9,1.2,1.9,1.7,2.9h0s0,0,0,0c-.7,1.2-1.3,2.4-1.7,3.7ZM3974.5,25.1h0c.1-2.3.7-4.4,1.7-6.3h0c0-.1,0,0,0,0,.7,2,1.2,4.1,1.3,6.3h0c0,0-3.1,0-3.1,0h0Z"/>
  <g>
    <path class="st0" d="M4243.3,21.9l-3.2-9.8h1.4l1.5,4.8c.4,1.3.8,2.5,1,3.7h0c.3-1.1.7-2.4,1.1-3.6l1.7-4.8h1.3l-3.5,9.8h-1.4,0Z"/>
    <path class="st0" d="M4254.7,17.4h-3.8v3.5h4.2v1.1h-5.5v-9.8h5.3v1.1h-4v3.1h3.8v1h0Z"/>
    <path class="st0" d="M4257.1,20.4c.6.3,1.4.6,2.3.6,1.3,0,2-.7,2-1.7s-.5-1.4-1.8-1.9c-1.6-.6-2.6-1.4-2.6-2.8s1.3-2.7,3.2-2.7,1.7.2,2.2.5l-.3,1c-.3-.2-1-.5-1.9-.5-1.3,0-1.8.8-1.8,1.5s.6,1.4,1.9,1.9c1.7.6,2.5,1.4,2.5,2.9s-1.1,2.8-3.4,2.8-2-.3-2.5-.6l.3-1.1h0Z"/>
    <path class="st0" d="M4266.7,13.2h-3v-1.1h7.2v1.1h-3v8.7h-1.3v-8.7Z"/>
    <path class="st0" d="M4272.5,12.2h5.3v1.1h-4v3.2h3.7v1h-3.7v4.4h-1.3v-9.8h0Z"/>
    <path class="st0" d="M4288.3,17c0,3.4-2,5.1-4.5,5.1s-4.4-2-4.4-5,1.9-5.1,4.5-5.1,4.4,2,4.4,4.9ZM4280.7,17.1c0,2.1,1.1,4,3.1,4s3.1-1.8,3.1-4.1-1-4-3.1-4-3.1,1.9-3.1,4.1Z"/>
    <path class="st0" d="M4290.4,12.2h1.3v8.7h4.2v1.1h-5.4v-9.8Z"/>
    <path class="st0" d="M4297.7,12.3c.8-.1,1.7-.2,2.7-.2,1.8,0,3.1.4,4,1.2.9.8,1.4,1.9,1.4,3.5s-.5,2.9-1.4,3.8c-.9.9-2.4,1.4-4.3,1.4s-1.7,0-2.3-.1v-9.6h0ZM4298.9,20.9c.3,0,.8,0,1.3,0,2.7,0,4.2-1.5,4.2-4.1,0-2.3-1.3-3.8-4-3.8s-1.1,0-1.5.1v7.7h0Z"/>
    <path class="st0" d="M4319.6,17c0,3.4-2,5.1-4.5,5.1s-4.4-2-4.4-5,1.9-5.1,4.5-5.1,4.4,2,4.4,4.9ZM4312,17.1c0,2.1,1.1,4,3.1,4s3.1-1.8,3.1-4.1-1-4-3.1-4-3.1,1.9-3.1,4.1Z"/>
    <path class="st0" d="M4329.1,21.5c-.6.2-1.7.5-3,.5s-2.7-.4-3.7-1.3c-.8-.8-1.4-2.1-1.4-3.6,0-2.9,2-5,5.3-5s2,.2,2.4.4l-.3,1c-.5-.2-1.2-.4-2.2-.4-2.4,0-3.9,1.5-3.9,3.9s1.5,3.9,3.8,3.9,1.4-.1,1.7-.3v-2.9h-2v-1h3.2v4.7h0Z"/>
    <path class="st0" d="M4336.3,13.2h-3v-1.1h7.2v1.1h-3v8.7h-1.3v-8.7Z"/>
    <path class="st0" d="M4347.1,17.4h-3.8v3.5h4.2v1.1h-5.5v-9.8h5.3v1.1h-4v3.1h3.8v1h0Z"/>
    <path class="st0" d="M4349.6,12.2h1.3v8.7h4.2v1.1h-5.4v-9.8Z"/>
    <path class="st0" d="M4361.9,17.4h-3.8v3.5h4.2v1.1h-5.5v-9.8h5.3v1.1h-4v3.1h3.8v1h0Z"/>
    <path class="st0" d="M4372.7,17.6c0-1.4-.2-3-.1-4.2h0c-.3,1.1-.7,2.4-1.2,3.7l-1.7,4.7h-1l-1.6-4.7c-.5-1.4-.9-2.6-1.1-3.8h0c0,1.2-.1,2.9-.2,4.3l-.3,4.2h-1.2l.7-9.8h1.6l1.7,4.7c.4,1.2.7,2.3,1,3.3h0c.2-1,.6-2.1,1-3.3l1.7-4.7h1.6l.6,9.8h-1.2l-.2-4.3h0Z"/>
    <path class="st0" d="M4378,18.9l-1,3.1h-1.3l3.3-9.8h1.5l3.3,9.8h-1.4l-1-3.1h-3.5,0ZM4381.2,17.9l-1-2.8c-.2-.6-.4-1.2-.5-1.8h0c-.1.6-.3,1.2-.5,1.8l-1,2.8s2.9,0,2.9,0Z"/>
    <path class="st0" d="M4385.7,12.3c.6-.1,1.6-.2,2.4-.2,1.3,0,2.2.2,2.8.8.5.4.8,1.1.8,1.9,0,1.3-.8,2.1-1.8,2.5h0c.8.3,1.2,1,1.4,2,.3,1.4.6,2.3.8,2.7h-1.3c-.2-.3-.4-1.1-.7-2.3-.3-1.3-.8-1.9-2-1.9h-1.2v4.2h-1.3v-9.6h0ZM4387,16.7h1.3c1.3,0,2.2-.7,2.2-1.9s-.9-1.8-2.2-1.8c-.6,0-1,0-1.2.1v3.6Z"/>
    <path class="st0" d="M4393.9,12.2h1.3v4.7h0c.3-.4.5-.7.8-1l3-3.7h1.6l-3.5,4.1,3.8,5.6h-1.5l-3.2-4.8-.9,1.1v3.7h-1.3v-9.8h0Z"/>
    <path class="st0" d="M4241.1,26.8c.6-.1,1.4-.2,2.3-.2,1.3,0,2.1.2,2.7.7.5.4.8,1,.8,1.7s-.6,1.8-1.7,2.1h0c.9.3,2,1,2,2.5s-.3,1.5-.8,2c-.7.6-1.8.9-3.4.9s-1.5,0-2-.1v-9.6h0ZM4242.4,30.8h1.1c1.3,0,2.1-.7,2.1-1.6s-.9-1.6-2.1-1.6-.9,0-1.1,0v3.1ZM4242.4,35.5c.2,0,.6,0,1.1,0,1.3,0,2.5-.5,2.5-1.9s-1.1-1.9-2.5-1.9h-1v3.7h0Z"/>
    <path class="st0" d="M4257.8,31.5c0,3.4-2,5.1-4.5,5.1s-4.4-2-4.4-5,1.9-5.1,4.5-5.1,4.4,2,4.4,4.9ZM4250.2,31.6c0,2.1,1.1,4,3.1,4s3.1-1.8,3.1-4.1-1-4-3.1-4-3.1,1.9-3.1,4.1Z"/>
    <path class="st0" d="M4259.9,36.4v-9.8h1.4l3.1,4.9c.7,1.1,1.3,2.2,1.8,3.2h0c-.1-1.3-.1-2.5-.1-4v-4.1h1.2v9.8h-1.3l-3.1-5c-.7-1.1-1.3-2.2-1.8-3.3h0c0,1.2.1,2.4.1,4v4.2h-1.2,0Z"/>
    <path class="st0" d="M4269.8,26.8c.8-.1,1.7-.2,2.7-.2,1.8,0,3.1.4,4,1.2.9.8,1.4,1.9,1.4,3.5s-.5,2.9-1.4,3.8c-.9.9-2.4,1.4-4.3,1.4s-1.7,0-2.3-.1v-9.6h0ZM4271.1,35.4c.3,0,.8,0,1.3,0,2.7,0,4.2-1.5,4.2-4.1,0-2.3-1.3-3.8-4-3.8s-1.1,0-1.5.1v7.7h0Z"/>
    <path class="st0" d="M4285,31.9h-3.8v3.5h4.2v1.1h-5.5v-9.8h5.3v1.1h-4v3.1h3.8v1h0Z"/>
    <path class="st0" d="M4287.5,26.7h1.3v8.7h4.2v1.1h-5.4v-9.8Z"/>
    <path class="st0" d="M4296.4,33.4l-1,3.1h-1.3l3.3-9.8h1.5l3.3,9.8h-1.3l-1-3.1h-3.5,0ZM4299.6,32.4l-1-2.8c-.2-.6-.4-1.2-.5-1.8h0c-.1.6-.3,1.2-.5,1.8l-1,2.8h2.9Z"/>
    <path class="st0" d="M4311.3,36c-.6.2-1.7.5-3,.5s-2.7-.4-3.7-1.3c-.8-.8-1.4-2.1-1.4-3.6,0-2.9,2-5,5.3-5s2,.2,2.4.4l-.3,1c-.5-.2-1.2-.4-2.2-.4-2.4,0-3.9,1.5-3.9,3.9s1.5,3.9,3.8,3.9,1.4-.1,1.7-.3v-2.9h-2v-1h3.2v4.7h0Z"/>
  </g>
  <path class="st0" d="M4237.1,12.5c-5.1.3-9.5,3.4-11.6,8h0c0,.1,0,0,0,0-.3-1.3-.8-2.6-1.3-3.8h0s0,0,0,0c2.2-3.1,5.4-5.5,9-6.6v-1.9c-2.3.6-4.4,1.6-6.3,3.1h0s0,0,0,0c-.5-.9-1.1-1.7-1.7-2.5h0s0,0,0,0c2.4-1.8,5.1-3,8-3.7v-1.8c-3.3.7-6.4,2.1-9.2,4.2h0s0,0,0,0c-.7-.7-1.4-1.5-2.1-2.2h0s0,0,0,0c1.8-1.4,3.8-2.6,6-3.5l-.7-1.6c-2.4,1-4.7,2.3-6.7,4h0s0,0,0,0c-2-1.6-4.3-2.9-6.7-4l-.7,1.6c2.1.9,4.1,2.1,6,3.5h0s0,0,0,0c-.7.7-1.5,1.4-2.1,2.2h0s0,0,0,0c-2.8-2.1-5.8-3.5-9.2-4.2v1.8c2.9.7,5.6,1.9,8,3.7h0s0,0,0,0c-.6.8-1.2,1.6-1.7,2.5h0s0,0,0,0c-1.9-1.4-4-2.4-6.3-3.1v1.9c3.6,1.1,6.8,3.4,9,6.6h0s0,0,0,0c-.5,1.2-1,2.5-1.3,3.8h0c0,.1,0,0,0,0-2.1-4.7-6.6-7.7-11.6-8v1.8c2.8.2,5.4,1.4,7.5,3.3,2,2,3.3,4.6,3.5,7.4h0c0,0-2,0-2,0-.1.6-.1,1.1-.1,1.5s0,.9.1,1.4h2.1v8.7h1.8v-8.7h3.1v8.7h1.8v-8.7h3.1v8.7h1.8v-8.7h2.1c0-.5.1-1,.1-1.5s0-1-.1-1.5h-2,0c.3-2.8,1.5-5.5,3.5-7.4,2-2,4.7-3.1,7.4-3.3v-1.8h0ZM4223.6,9.9h0s0,0,0,0c.6.8,1.2,1.6,1.7,2.5h0s0,0,0,0c-.8.7-1.5,1.5-2.1,2.3h0c0,0,0,0,0,0-.5-.9-1.1-1.8-1.7-2.7h0s0,0,0,0c.7-.8,1.4-1.5,2.1-2.2h0ZM4218.1,8.5c.7-.8,1.4-1.5,2.1-2.1h0s0,0,0,0c.8.7,1.5,1.4,2.1,2.1h0s0,0,0,0c-.8.7-1.5,1.4-2.1,2.1h0s0,0,0,0c-.7-.8-1.4-1.5-2.1-2.1h0s0,0,0,0h0ZM4215.2,12.5h0s0,0,0,0c.5-.9,1.1-1.7,1.7-2.5h0s0,0,0,0c.8.7,1.5,1.4,2.1,2.2h0s0,0,0,0c-.6.8-1.2,1.7-1.7,2.7h0c0,0,0,0,0,0-.6-.8-1.4-1.6-2.1-2.3h0ZM4216.3,25.1h0c.1-2.2.5-4.3,1.3-6.3h0c0-.1,0,0,0,0,1,2,1.5,4.1,1.7,6.3h0c0,0-3.1,0-3.1,0h0ZM4220.4,20.3h0c0,.1,0,0,0,0-.4-1.3-1-2.6-1.7-3.7h0s0,0,0,0c.5-1,1.1-2,1.7-2.9h0c0,0,0,0,0,0,.6.9,1.2,1.9,1.7,2.9h0s0,0,0,0c-.7,1.2-1.3,2.4-1.7,3.7h0ZM4221.2,25.1h0c.1-2.3.7-4.4,1.7-6.3h0c0-.1,0,0,0,0,.7,2,1.2,4.1,1.3,6.3h0c0,0-3.1,0-3.1,0h0Z"/>
  <g>
    <path class="st0" d="M4490.1,21.9l-3.2-9.8h1.4l1.5,4.8c.4,1.3.8,2.5,1,3.7h0c.3-1.1.7-2.4,1.1-3.6l1.7-4.8h1.3l-3.5,9.8h-1.4,0Z"/>
    <path class="st0" d="M4501.5,17.4h-3.8v3.5h4.2v1.1h-5.5v-9.8h5.3v1.1h-4v3.1h3.8v1h0Z"/>
    <path class="st0" d="M4503.8,20.4c.6.3,1.4.6,2.3.6,1.3,0,2-.7,2-1.7s-.5-1.4-1.8-1.9c-1.6-.6-2.6-1.4-2.6-2.8s1.3-2.7,3.2-2.7,1.7.2,2.2.5l-.3,1c-.3-.2-1-.5-1.9-.5-1.3,0-1.8.8-1.8,1.5s.6,1.4,1.9,1.9c1.7.6,2.5,1.4,2.5,2.9s-1.1,2.8-3.4,2.8-2-.3-2.5-.6l.3-1.1h0Z"/>
    <path class="st0" d="M4513.4,13.2h-3v-1.1h7.2v1.1h-3v8.7h-1.3v-8.7Z"/>
    <path class="st0" d="M4519.2,12.2h1.3v8.7h4.2v1.1h-5.4v-9.8Z"/>
    <path class="st0" d="M4528.1,18.9l-1,3.1h-1.3l3.3-9.8h1.5l3.3,9.8h-1.4l-1-3.1h-3.5,0ZM4531.3,17.9l-1-2.8c-.2-.6-.4-1.2-.5-1.8h0c-.1.6-.3,1.2-.5,1.8l-1,2.8s2.9,0,2.9,0Z"/>
    <path class="st0" d="M4535.8,21.9v-9.8h1.4l3.1,4.9c.7,1.1,1.3,2.2,1.8,3.2h0c-.1-1.3-.1-2.5-.1-4v-4.1h1.2v9.8h-1.3l-3.1-5c-.7-1.1-1.3-2.2-1.8-3.3h0c0,1.2.1,2.4.1,4v4.2h-1.2,0Z"/>
    <path class="st0" d="M4545.8,12.3c.8-.1,1.7-.2,2.7-.2,1.8,0,3.1.4,4,1.2.9.8,1.4,1.9,1.4,3.5s-.5,2.9-1.4,3.8c-.9.9-2.4,1.4-4.3,1.4s-1.7,0-2.3-.1v-9.6h0ZM4547.1,20.9c.3,0,.8,0,1.3,0,2.7,0,4.2-1.5,4.2-4.1,0-2.3-1.3-3.8-4-3.8s-1.1,0-1.5.1v7.7h0Z"/>
    <path class="st0" d="M4487.9,26.8c.6-.1,1.4-.2,2.3-.2,1.3,0,2.1.2,2.7.7.5.4.8,1,.8,1.7s-.6,1.8-1.7,2.1h0c.9.3,2,1,2,2.5s-.3,1.5-.8,2c-.7.6-1.8.9-3.4.9s-1.5,0-2-.1v-9.6h0ZM4489.2,30.8h1.1c1.3,0,2.1-.7,2.1-1.6s-.9-1.6-2.1-1.6-.9,0-1.1,0v3.1ZM4489.2,35.5c.2,0,.6,0,1.1,0,1.3,0,2.5-.5,2.5-1.9s-1.1-1.9-2.5-1.9h-1v3.7h0Z"/>
    <path class="st0" d="M4504.6,31.5c0,3.4-2,5.1-4.5,5.1s-4.4-2-4.4-5,1.9-5.1,4.5-5.1,4.4,2,4.4,4.9ZM4497,31.6c0,2.1,1.1,4,3.1,4s3.1-1.8,3.1-4.1-1-4-3.1-4-3.1,1.9-3.1,4.1Z"/>
    <path class="st0" d="M4506.6,36.4v-9.8h1.4l3.1,4.9c.7,1.1,1.3,2.2,1.8,3.2h0c-.1-1.3-.1-2.5-.1-4v-4.1h1.2v9.8h-1.3l-3.1-5c-.7-1.1-1.3-2.2-1.8-3.3h0c0,1.2.1,2.4.1,4v4.2h-1.2,0Z"/>
    <path class="st0" d="M4516.6,26.8c.8-.1,1.7-.2,2.7-.2,1.8,0,3.1.4,4,1.2.9.8,1.4,1.9,1.4,3.5s-.5,2.9-1.4,3.8c-.9.9-2.4,1.4-4.3,1.4s-1.7,0-2.3-.1v-9.6h0ZM4517.9,35.4c.3,0,.8,0,1.3,0,2.7,0,4.2-1.5,4.2-4.1,0-2.3-1.3-3.8-4-3.8s-1.1,0-1.5.1v7.7h0Z"/>
    <path class="st0" d="M4531.8,31.9h-3.8v3.5h4.2v1.1h-5.5v-9.8h5.3v1.1h-4v3.1h3.8v1h0Z"/>
    <path class="st0" d="M4534.3,26.7h1.3v8.7h4.2v1.1h-5.4v-9.8Z"/>
    <path class="st0" d="M4543.1,33.4l-1,3.1h-1.3l3.3-9.8h1.5l3.3,9.8h-1.3l-1-3.1h-3.5,0ZM4546.3,32.4l-1-2.8c-.2-.6-.4-1.2-.5-1.8h0c-.1.6-.3,1.2-.5,1.8l-1,2.8h2.9Z"/>
    <path class="st0" d="M4558.1,36c-.6.2-1.7.5-3,.5s-2.7-.4-3.7-1.3c-.8-.8-1.4-2.1-1.4-3.6,0-2.9,2-5,5.3-5s2,.2,2.4.4l-.3,1c-.5-.2-1.2-.4-2.2-.4-2.4,0-3.9,1.5-3.9,3.9s1.5,3.9,3.8,3.9,1.4-.1,1.7-.3v-2.9h-2v-1h3.2v4.7h0Z"/>
  </g>
  <path class="st0" d="M4483.9,12.5c-5.1.3-9.5,3.4-11.6,8h0c0,.1,0,0,0,0-.3-1.3-.8-2.6-1.3-3.8h0s0,0,0,0c2.2-3.1,5.4-5.5,9-6.6v-1.9c-2.3.6-4.4,1.6-6.3,3.1h0s0,0,0,0c-.5-.9-1.1-1.7-1.7-2.5h0s0,0,0,0c2.4-1.8,5.1-3,8-3.7v-1.8c-3.3.7-6.4,2.1-9.2,4.2h0s0,0,0,0c-.7-.7-1.4-1.5-2.1-2.2h0s0,0,0,0c1.8-1.4,3.8-2.6,6-3.5l-.7-1.6c-2.4,1-4.7,2.3-6.7,4h0s0,0,0,0c-2-1.6-4.3-2.9-6.7-4l-.7,1.6c2.1.9,4.1,2.1,6,3.5h0s0,0,0,0c-.7.7-1.5,1.4-2.1,2.2h0s0,0,0,0c-2.8-2.1-5.8-3.5-9.2-4.2v1.8c2.9.7,5.6,1.9,8,3.7h0s0,0,0,0c-.6.8-1.2,1.6-1.7,2.5h0s0,0,0,0c-1.9-1.4-4-2.4-6.3-3.1v1.9c3.6,1.1,6.8,3.4,9,6.6h0s0,0,0,0c-.5,1.2-1,2.5-1.3,3.8h0c0,.1,0,0,0,0-2.1-4.7-6.6-7.7-11.6-8v1.8c2.8.2,5.4,1.4,7.5,3.3,2,2,3.3,4.6,3.5,7.4h0c0,0-2,0-2,0-.1.6-.1,1.1-.1,1.5s0,.9.1,1.4h2.1v8.7h1.8v-8.7h3.1v8.7h1.8v-8.7h3.1v8.7h1.8v-8.7h2.1c0-.5.1-1,.1-1.5s0-1-.1-1.5h-2,0c.3-2.8,1.5-5.5,3.5-7.4,2-2,4.7-3.1,7.4-3.3v-1.8h0ZM4470.4,9.9h0s0,0,0,0c.6.8,1.2,1.6,1.7,2.5h0s0,0,0,0c-.8.7-1.5,1.5-2.1,2.3h0c0,0,0,0,0,0-.5-.9-1.1-1.8-1.7-2.7h0s0,0,0,0c.7-.8,1.4-1.5,2.1-2.2h0ZM4464.9,8.5c.7-.8,1.4-1.5,2.1-2.1h0s0,0,0,0c.8.7,1.5,1.4,2.1,2.1h0s0,0,0,0c-.8.7-1.5,1.4-2.1,2.1h0s0,0,0,0c-.7-.8-1.4-1.5-2.1-2.1h0s0,0,0,0h0ZM4462,12.5h0s0,0,0,0c.5-.9,1.1-1.7,1.7-2.5h0s0,0,0,0c.8.7,1.5,1.4,2.1,2.2h0s0,0,0,0c-.6.8-1.2,1.7-1.7,2.7h0c0,0,0,0,0,0-.6-.8-1.4-1.6-2.1-2.3h0ZM4463.1,25.1h0c.1-2.2.5-4.3,1.3-6.3h0c0-.1,0,0,0,0,1,2,1.5,4.1,1.7,6.3h0c0,0-3.1,0-3.1,0h0ZM4467.1,20.3h0c0,.1,0,0,0,0-.4-1.3-1-2.6-1.7-3.7h0s0,0,0,0c.5-1,1.1-2,1.7-2.9h0c0,0,0,0,0,0,.6.9,1.2,1.9,1.7,2.9h0s0,0,0,0c-.7,1.2-1.3,2.4-1.7,3.7h0ZM4468,25.1h0c.1-2.3.7-4.4,1.7-6.3h0c0-.1,0,0,0,0,.7,2,1.2,4.1,1.3,6.3h0c0,0-3.1,0-3.1,0h0Z"/>
  <g>
    <path class="st0" d="M4736.8,21.9l-3.2-9.8h1.4l1.5,4.8c.4,1.3.8,2.5,1,3.7h0c.3-1.1.7-2.4,1.1-3.6l1.7-4.8h1.3l-3.5,9.8h-1.4,0Z"/>
    <path class="st0" d="M4744.5,12.2v9.8h-1.3v-9.8h1.3Z"/>
    <path class="st0" d="M4747.1,12.2h1.3v4.7h0c.3-.4.5-.7.8-1l3-3.7h1.6l-3.5,4.1,3.8,5.6h-1.5l-3.2-4.8-.9,1.1v3.7h-1.3v-9.8h0Z"/>
    <path class="st0" d="M4760.5,17.4h-3.8v3.5h4.2v1.1h-5.5v-9.8h5.3v1.1h-4v3.1h3.8v1h0Z"/>
    <path class="st0" d="M4763,21.9v-9.8h1.4l3.1,4.9c.7,1.1,1.3,2.2,1.8,3.2h0c-.1-1.3-.1-2.5-.1-4v-4.1h1.2v9.8h-1.3l-3.1-5c-.7-1.1-1.3-2.2-1.8-3.3h0c0,1.2.1,2.4.1,4v4.2h-1.2,0Z"/>
    <path class="st0" d="M4734.7,26.8c.6-.1,1.4-.2,2.3-.2,1.3,0,2.1.2,2.7.7.5.4.8,1,.8,1.7s-.6,1.8-1.7,2.1h0c.9.3,2,1,2,2.5s-.3,1.5-.8,2c-.7.6-1.8.9-3.4.9s-1.5,0-2-.1v-9.6h0ZM4735.9,30.8h1.1c1.3,0,2.1-.7,2.1-1.6s-.9-1.6-2.1-1.6-.9,0-1.1,0v3.1ZM4735.9,35.5c.2,0,.6,0,1.1,0,1.3,0,2.5-.5,2.5-1.9s-1.1-1.9-2.5-1.9h-1v3.7h0Z"/>
    <path class="st0" d="M4751.3,31.5c0,3.4-2,5.1-4.5,5.1s-4.4-2-4.4-5,1.9-5.1,4.5-5.1,4.4,2,4.4,4.9ZM4743.7,31.6c0,2.1,1.1,4,3.1,4s3.1-1.8,3.1-4.1-1-4-3.1-4-3.1,1.9-3.1,4.1Z"/>
    <path class="st0" d="M4753.4,36.4v-9.8h1.4l3.1,4.9c.7,1.1,1.3,2.2,1.8,3.2h0c-.1-1.3-.1-2.5-.1-4v-4.1h1.2v9.8h-1.3l-3.1-5c-.7-1.1-1.3-2.2-1.8-3.3h0c0,1.2.1,2.4.1,4v4.2h-1.2,0Z"/>
    <path class="st0" d="M4763.4,26.8c.8-.1,1.7-.2,2.7-.2,1.8,0,3.1.4,4,1.2.9.8,1.4,1.9,1.4,3.5s-.5,2.9-1.4,3.8c-.9.9-2.4,1.4-4.3,1.4s-1.7,0-2.3-.1v-9.6h0ZM4764.6,35.4c.3,0,.8,0,1.3,0,2.7,0,4.2-1.5,4.2-4.1,0-2.3-1.3-3.8-4-3.8s-1.1,0-1.5.1v7.7h0Z"/>
    <path class="st0" d="M4778.5,31.9h-3.8v3.5h4.2v1.1h-5.5v-9.8h5.3v1.1h-4v3.1h3.8v1h0Z"/>
    <path class="st0" d="M4781,26.7h1.3v8.7h4.2v1.1h-5.4v-9.8Z"/>
    <path class="st0" d="M4789.9,33.4l-1,3.1h-1.3l3.3-9.8h1.5l3.3,9.8h-1.3l-1-3.1h-3.5,0ZM4793.1,32.4l-1-2.8c-.2-.6-.4-1.2-.5-1.8h0c-.1.6-.3,1.2-.5,1.8l-1,2.8h2.9Z"/>
    <path class="st0" d="M4804.8,36c-.6.2-1.7.5-3,.5s-2.7-.4-3.7-1.3c-.8-.8-1.4-2.1-1.4-3.6,0-2.9,2-5,5.3-5s2,.2,2.4.4l-.3,1c-.5-.2-1.2-.4-2.2-.4-2.4,0-3.9,1.5-3.9,3.9s1.5,3.9,3.8,3.9,1.4-.1,1.7-.3v-2.9h-2v-1h3.2v4.7h0Z"/>
  </g>
  <path class="st0" d="M4730.7,12.5c-5.1.3-9.5,3.4-11.6,8h0c0,.1,0,0,0,0-.3-1.3-.8-2.6-1.3-3.8h0s0,0,0,0c2.2-3.1,5.4-5.5,9-6.6v-1.9c-2.3.6-4.4,1.6-6.3,3.1h0s0,0,0,0c-.5-.9-1.1-1.7-1.7-2.5h0s0,0,0,0c2.4-1.8,5.1-3,8-3.7v-1.8c-3.3.7-6.4,2.1-9.2,4.2h0s0,0,0,0c-.7-.7-1.4-1.5-2.1-2.2h0s0,0,0,0c1.8-1.4,3.8-2.6,6-3.5l-.7-1.6c-2.4,1-4.7,2.3-6.7,4h0s0,0,0,0c-2-1.6-4.3-2.9-6.7-4l-.7,1.6c2.1.9,4.1,2.1,6,3.5h0s0,0,0,0c-.7.7-1.5,1.4-2.1,2.2h0s0,0,0,0c-2.8-2.1-5.8-3.5-9.2-4.2v1.8c2.9.7,5.6,1.9,8,3.7h0s0,0,0,0c-.6.8-1.2,1.6-1.7,2.5h0s0,0,0,0c-1.9-1.4-4-2.4-6.3-3.1v1.9c3.6,1.1,6.8,3.4,9,6.6h0s0,0,0,0c-.5,1.2-1,2.5-1.3,3.8h0c0,.1,0,0,0,0-2.1-4.7-6.6-7.7-11.6-8v1.8c2.8.2,5.4,1.4,7.5,3.3,2,2,3.3,4.6,3.5,7.4h0c0,0-2,0-2,0-.1.6-.1,1.1-.1,1.5s0,.9.1,1.4h2.1v8.7h1.8v-8.7h3.1v8.7h1.8v-8.7h3.1v8.7h1.8v-8.7h2.1c0-.5.1-1,.1-1.5s0-1-.1-1.5h-2,0c.3-2.8,1.5-5.5,3.5-7.4,2-2,4.7-3.1,7.4-3.3v-1.8h0ZM4717.2,9.9h0s0,0,0,0c.6.8,1.2,1.6,1.7,2.5h0s0,0,0,0c-.8.7-1.5,1.5-2.1,2.3h0c0,0,0,0,0,0-.5-.9-1.1-1.8-1.7-2.7h0s0,0,0,0c.7-.8,1.4-1.5,2.1-2.2h0ZM4711.7,8.5c.7-.8,1.4-1.5,2.1-2.1h0s0,0,0,0c.8.7,1.5,1.4,2.1,2.1h0s0,0,0,0c-.8.7-1.5,1.4-2.1,2.1h0s0,0,0,0c-.7-.8-1.4-1.5-2.1-2.1h0s0,0,0,0h0ZM4708.7,12.5h0s0,0,0,0c.5-.9,1.1-1.7,1.7-2.5h0s0,0,0,0c.8.7,1.5,1.4,2.1,2.2h0s0,0,0,0c-.6.8-1.2,1.7-1.7,2.7h0c0,0,0,0,0,0-.6-.8-1.4-1.6-2.1-2.3h0ZM4709.9,25.1h0c.1-2.2.5-4.3,1.3-6.3h0c0-.1,0,0,0,0,1,2,1.5,4.1,1.7,6.3h0c0,0-3.1,0-3.1,0h0ZM4713.9,20.3h0c0,.1,0,0,0,0-.4-1.3-1-2.6-1.7-3.7h0s0,0,0,0c.5-1,1.1-2,1.7-2.9h0c0,0,0,0,0,0,.6.9,1.2,1.9,1.7,2.9h0s0,0,0,0c-.7,1.2-1.3,2.4-1.7,3.7h0ZM4714.8,25.1h0c.1-2.3.7-4.4,1.7-6.3h0c0-.1,0,0,0,0,.7,2,1.2,4.1,1.3,6.3h0c0,0-3.1,0-3.1,0h0Z"/>
</svg>