<?xml version="1.0" encoding="UTF-8"?>
<svg id="Layer_2" data-name="Layer 2" xmlns="http://www.w3.org/2000/svg" viewBox="0 0 304.68 127.56">
  <defs>
    <style>
      .cls-1 {
        fill: #fff;
      }
    </style>
  </defs>
  <g id="Dynamisk_sentrert">
    <g>
      <path class="cls-1" d="M193.73,30.83c-12.51.73-23.48,8.3-28.64,19.78l-.15.33-.09-.35c-.79-3.21-1.86-6.37-3.2-9.41l-.03-.06.04-.06c5.32-7.75,13.18-13.51,22.15-16.22v-4.57c-5.59,1.51-10.78,4.04-15.42,7.52l-.11.08-.07-.11c-1.3-2.1-2.72-4.15-4.23-6.1l-.08-.1.1-.08c5.95-4.41,12.61-7.48,19.81-9.13v-4.5c-8.24,1.73-15.85,5.18-22.63,10.26l-.09.07-.08-.08c-1.63-1.83-3.4-3.62-5.25-5.31l-.11-.1.12-.09c4.48-3.46,9.42-6.33,14.69-8.55l-1.63-4.06c-5.94,2.49-11.49,5.77-16.5,9.75l-.08.06-.08-.06c-5-3.97-10.55-7.25-16.49-9.74l-1.63,4.06c5.27,2.22,10.2,5.09,14.68,8.54l.12.09-.11.1c-1.84,1.68-3.61,3.46-5.24,5.31l-.08.08-.09-.07c-6.78-5.08-14.39-8.53-22.63-10.26v4.5c7.2,1.65,13.87,4.72,19.82,9.13l.1.08-.08.1c-1.52,1.96-2.95,4.02-4.23,6.1l-.07.11-.11-.08c-4.64-3.48-9.83-6.01-15.42-7.52v4.57c8.97,2.71,16.83,8.47,22.15,16.22l.04.06-.03.06c-1.33,3.03-2.41,6.2-3.2,9.41l-.09.35-.15-.33c-5.16-11.48-16.13-19.05-28.64-19.78v4.39c6.87.46,13.38,3.37,18.34,8.19,4.98,4.84,8.08,11.28,8.73,18.15v.14s-4.98,0-4.98,0c-.26,1.39-.3,2.61-.3,3.72s.04,2.33.3,3.56h5.13v21.38h4.38v-21.38h7.68v21.38h4.38v-21.38h7.67v21.38h4.38v-21.38h5.13c.21-1.28.31-2.49.31-3.72s-.1-2.39-.3-3.57h-4.99v-.14c.66-6.87,3.77-13.32,8.75-18.15,4.96-4.82,11.47-7.72,18.34-8.19v-4.39ZM160.41,24.42l.1-.09.08.1c1.51,1.94,2.93,4.03,4.24,6.2l.05.09-.07.07c-1.9,1.75-3.66,3.68-5.25,5.74l-.12.15-.09-.16c-1.26-2.29-2.68-4.5-4.22-6.57l-.06-.08.06-.08c1.63-1.91,3.4-3.72,5.28-5.38ZM146.91,20.87c1.65-1.85,3.42-3.62,5.27-5.27l.08-.07.08.07c1.86,1.66,3.64,3.44,5.28,5.27l.08.09-.09.08c-1.85,1.63-3.62,3.4-5.26,5.27l-.09.11-.09-.11c-1.64-1.87-3.41-3.64-5.26-5.27l-.09-.08.08-.09ZM139.72,30.79l-.07-.07.05-.09c1.3-2.14,2.72-4.23,4.25-6.2l.08-.1.1.09c1.87,1.66,3.64,3.47,5.28,5.38l.06.08-.06.08c-1.53,2.05-2.95,4.26-4.23,6.57l-.09.16-.12-.15c-1.59-2.07-3.36-4-5.25-5.74ZM142.46,61.7v-.13c.28-5.29,1.33-10.48,3.14-15.44l.1-.27.13.26c2.39,4.84,3.79,10.04,4.15,15.45v.13s-7.52,0-7.52,0ZM152.39,50.04l-.12.36-.12-.36c-1.07-3.22-2.49-6.32-4.22-9.2l-.03-.06.03-.06c1.22-2.45,2.65-4.84,4.25-7.1l.1-.14.1.14c1.6,2.26,3.03,4.65,4.24,7.1l.03.06-.03.06c-1.74,2.88-3.15,5.97-4.22,9.2ZM154.55,61.7v-.13c.37-5.41,1.77-10.61,4.16-15.45l.13-.26.1.27c1.81,4.95,2.86,10.15,3.14,15.44v.13s-7.52,0-7.52,0Z"/>
      <g>
        <path class="cls-1" d="M17.47,105.83v21c-1.09.26-2.38.33-3.47.3l-9.81-14.07-.59-1.12.06,1.32v13.74c-.66.13-1.22.2-1.85.2-.6,0-1.12-.07-1.82-.2v-20.97c.79-.3,2.28-.53,3.5-.33l9.77,14.07.6,1.06-.07-1.49v-13.51c.69-.13,1.16-.2,1.82-.2s1.22.07,1.85.2Z"/>
        <path class="cls-1" d="M22.39,116.36c0-6.44,4.52-11.19,10.83-11.19s10.83,4.59,10.83,11.19-4.52,11.16-10.83,11.16-10.83-4.62-10.83-11.16ZM40.02,116.36c0-4.62-2.67-7.69-6.8-7.69s-6.8,3.07-6.8,7.69,2.67,7.66,6.8,7.66,6.8-3.14,6.8-7.66Z"/>
        <path class="cls-1" d="M65.18,126.8c-.83.23-1.88.33-2.97.33-.36,0-.86,0-1.19-.07l-4.72-7.86h-.5c-.99,0-2.05,0-3.1-.07v7.86c-.63.13-1.22.2-1.88.2s-1.22-.07-1.88-.2v-20.87c1.95-.43,4.52-.69,6.77-.69,5.88,0,8.42,2.61,8.42,6.57,0,3.17-1.68,5.28-4.13,6.37l5.18,8.42ZM55.9,116c3.17,0,4.43-1.65,4.43-3.8s-1.42-3.53-4.46-3.53c-1.09,0-2.15.07-3.17.16v7.1c1.09.07,2.18.07,3.2.07Z"/>
        <path class="cls-1" d="M86.45,115.37v10.53c-1.72.89-4.13,1.65-7.4,1.65-6.47,0-11.03-4.23-11.03-11.1s4.82-11.29,11.03-11.29c3.24,0,5.55.86,6.97,1.85-.2,1.29-.83,2.48-1.95,3.14-1.39-.92-2.91-1.42-5.05-1.42-3.9,0-6.97,2.74-6.97,7.69,0,4.59,2.31,7.63,7.03,7.63,1.55,0,2.74-.2,3.67-.49v-4.69h-4c-.13-.63-.2-1.19-.2-1.78,0-.56.06-1.12.2-1.72h7.69Z"/>
        <path class="cls-1" d="M105.9,125.25c0,.59-.07,1.19-.23,1.75h-13.87v-21.2h13.57c.13.53.2,1.16.2,1.72,0,.59-.07,1.12-.2,1.68h-9.84v5.25h8.75c.13.56.2,1.12.2,1.68s-.07,1.09-.2,1.68h-8.75v5.81h10.14c.16.53.23,1.09.23,1.62Z"/>
        <path class="cls-1" d="M109.26,124.88c.23-1.35.99-2.38,1.95-2.94,1.32,1.19,3.3,2.11,5.72,2.11,2.84,0,4.09-1.19,4.09-2.87,0-1.39-.66-2.41-4.59-3.37-3.4-.79-6.51-2.18-6.54-6.37,0-3.67,2.94-6.18,7.43-6.18,3.5,0,5.71,1.06,7.07,2.11-.1,1.16-.83,2.48-1.82,3.04-1.32-.96-3.01-1.72-5.38-1.72s-3.63,1.09-3.63,2.48.66,2.15,4.29,3.04c4.13,1.02,6.84,2.68,6.87,6.57.03,4.29-3,6.74-7.83,6.74-4,0-6.37-1.45-7.63-2.64Z"/>
        <path class="cls-1" d="M153.45,120.99c0,4.03-2.87,6.51-8.85,6.51-2.81,0-4.92-.2-6.61-.53v-20.8c1.68-.33,3.9-.6,6.47-.6,5.58,0,8.02,2.11,8.02,5.85,0,2.38-1.06,3.76-2.68,4.56,2.25.76,3.63,2.35,3.63,5.02ZM141.72,108.77v5.85h3.27c2.77,0,3.86-1.12,3.86-3.1,0-1.82-1.42-2.87-4.16-2.87-.96,0-1.95.03-2.97.13ZM149.68,120.92c0-2.11-1.55-3.17-4.39-3.17h-3.56v6.44c.86.1,1.85.16,3,.16,3.5,0,4.95-1.06,4.95-3.43Z"/>
        <path class="cls-1" d="M157.08,116.36c0-6.44,4.52-11.19,10.83-11.19s10.83,4.59,10.83,11.19-4.52,11.16-10.83,11.16-10.83-4.62-10.83-11.16ZM174.71,116.36c0-4.62-2.67-7.69-6.8-7.69s-6.8,3.07-6.8,7.69,2.67,7.66,6.8,7.66,6.8-3.14,6.8-7.66Z"/>
        <path class="cls-1" d="M201.13,105.83v21c-1.09.26-2.38.33-3.47.3l-9.81-14.07-.59-1.12.06,1.32v13.74c-.66.13-1.22.2-1.85.2-.6,0-1.12-.07-1.82-.2v-20.97c.79-.3,2.28-.53,3.5-.33l9.77,14.07.6,1.06-.07-1.49v-13.51c.69-.13,1.16-.2,1.82-.2.63,0,1.22.07,1.85.2Z"/>
        <path class="cls-1" d="M225.59,116.2c0,6.7-4.62,11.13-11.89,11.13-2.41,0-4.19-.07-6.41-.4v-21.03c2.08-.33,3.7-.46,6.21-.46,7.83,0,12.09,4.33,12.09,10.77ZM221.53,116.3c0-4.39-2.61-7.36-7.93-7.36-.79,0-1.59,0-2.54.1v14.76c.86.07,1.78.1,2.84.1,4.99,0,7.63-3.07,7.63-7.59Z"/>
        <path class="cls-1" d="M244.65,125.25c0,.59-.06,1.19-.23,1.75h-13.87v-21.2h13.57c.13.53.2,1.16.2,1.72,0,.59-.07,1.12-.2,1.68h-9.84v5.25h8.75c.13.56.2,1.12.2,1.68s-.07,1.09-.2,1.68h-8.75v5.81h10.14c.17.53.23,1.09.23,1.62Z"/>
        <path class="cls-1" d="M262.74,125.28c0,.53-.06,1.12-.2,1.72h-12.98v-21.2c.63-.13,1.22-.2,1.85-.2s1.26.07,1.88.2v17.83h9.24c.13.56.2,1.09.2,1.65Z"/>
        <path class="cls-1" d="M284.21,126.77c-.73.26-1.49.36-2.34.36-.5,0-1.09-.03-1.55-.13l-1.88-5.09h-8.32l-1.82,5.09c-.56.1-1.16.13-1.68.13-.79,0-1.49-.1-2.08-.36l7.89-20.97c.63-.16,1.32-.2,1.95-.2.66,0,1.26.03,1.88.2l7.96,20.97ZM277.27,118.74l-2.44-6.6-.59-1.95-.6,1.95-2.38,6.6h6.01Z"/>
        <path class="cls-1" d="M304.68,115.37v10.53c-1.72.89-4.13,1.65-7.4,1.65-6.47,0-11.03-4.23-11.03-11.1s4.82-11.29,11.03-11.29c3.24,0,5.55.86,6.97,1.85-.2,1.29-.83,2.48-1.95,3.14-1.39-.92-2.91-1.42-5.05-1.42-3.9,0-6.97,2.74-6.97,7.69,0,4.59,2.31,7.63,7.03,7.63,1.55,0,2.74-.2,3.67-.49v-4.69h-4c-.13-.63-.2-1.19-.2-1.78,0-.56.06-1.12.2-1.72h7.69Z"/>
      </g>
    </g>
  </g>
</svg>